<?xml version="1.0" encoding="UTF-8" standalone="no"?>
<svg version="1.1" class="main-header__brand-svg -small" xmlns="http://www.w3.org/2000/svg" xmlns:xlink="http://www.w3.org/1999/xlink" x="0px" y="0px" width="30px" height="36.8px" viewBox="0 0 30 36.8" enable-background="new 0 0 30 36.8" xml:space="preserve">
<g>
	<path fill="#001689" d="M3.1,19.3C3.1,21,3.9,22,5.5,22c1.7,0,2.7-0.7,2.7-2.8v-4.6c0-0.8-0.5-1-1.4-1v-0.7h3.7v0.7
		c-0.9,0-1.3,0.2-1.3,1v4.9c0,2.4-1.8,3.5-3.8,3.5c-2.5,0-4.1-1.1-4.1-3.5v-4.9c0-0.8-0.4-1-1.3-1v-0.7h4.5v0.7
		c-0.9,0-1.3,0.2-1.3,1v4.7H3.1z"></path>
	<path fill="#001689" d="M13,18.8c0,1.6,0.7,3,2.1,3c0.6,0,1.2-0.2,1.5-0.6v-3.6c0-1.2-0.6-1.8-1.6-1.8C13.8,15.9,13,17.1,13,18.8
		 M16.6,21.7c-0.5,0.8-1.2,1.3-2.3,1.3c-1.9,0-3-1.5-3-3.6c0-2.7,1.6-4.3,3.7-4.3c0.7,0,1.3,0.2,1.6,0.7v-2.1l-1-0.6v-0.4l2.3-0.7
		h0.4v9.1c0,0.5,0.1,0.6,0.7,0.7h0.4v0.6L16.9,23h-0.3V21.7z"></path>
	<path fill="#001689" d="M25.4,12.8c1.5,0,2.5,0.4,3.2,0.9v2.2h-0.8c-0.4-1.6-1.3-2.3-2.5-2.3c-2.1,0-3,1.9-3,4.1
		c0,2.6,1,4.5,3.2,4.5c0.7,0,1.2-0.1,1.6-0.5v-1.9c0-0.8-0.4-1-1.3-1v-0.7H30v0.7c-0.9,0-1.2,0.2-1.2,1V22c-0.9,0.6-2.1,1-3.5,1
		c-3.1,0-4.9-2-4.9-4.9C20.3,14.8,22.6,12.8,25.4,12.8"></path>
	<path fill="#001689" d="M15.2,0c0.3,1.6,1.2,2.7,3.3,2.7h7.3C28.4,2.7,30,4.9,30,8h-0.7c-0.2-1.9-1-3-3.2-3h-7.3
		c-2.2,0-3-1.1-3.7-3.3C14.4,3.9,13.7,5,11.4,5H4C1.8,5,1,6.1,0.8,8H0.1c0-3.1,1.6-5.3,4.2-5.3h7.3c2.1,0,2.9-1.1,3.3-2.7
		C14.9,0,15.2,0,15.2,0z"></path>
	<path fill="#001689" d="M14.9,36.8c-0.3-1.6-1.2-2.7-3.3-2.7H4.4c-2.6,0-4.2-2.2-4.2-5.3h0.7c0.2,1.9,1,3,3.2,3h7.3
		c2.2,0,3,1.1,3.7,3.3c0.7-2.2,1.4-3.3,3.7-3.3h7.3c2.2,0,3-1.1,3.2-3H30c0,3.1-1.6,5.3-4.2,5.3h-7.3c-2.1,0-2.9,1.1-3.3,2.7H14.9z"></path>
</g>
</svg>